<svg width="auto" height="auto" viewBox="0 0 523 488" fill="none" xmlns="http://www.w3.org/2000/svg">
<path d="M400.944 487.638H92.6467C120.595 448.454 179.111 413.605 246.795 413.605C314.479 413.605 373.009 448.454 400.944 487.638Z" fill="#EBEAE5"/>
<path d="M238.959 485.947V209.466" stroke="#56303C" stroke-width="3.17441" stroke-miterlimit="10" stroke-linecap="round"/>
<path d="M299.929 285.141H334.226V289.682C334.226 297.304 332.725 304.85 329.809 311.892C326.892 318.933 322.617 325.331 317.228 330.72C311.839 336.109 305.441 340.384 298.399 343.301C291.358 346.217 283.811 347.719 276.19 347.719H253.044V332.033C253.044 325.875 254.256 319.778 256.612 314.089C258.968 308.4 262.421 303.231 266.775 298.877C271.129 294.523 276.297 291.069 281.986 288.712C287.674 286.355 293.771 285.142 299.929 285.141Z" fill="#88BC8A"/>
<path d="M311.257 305.927L260.263 341.056C253.692 345.582 248.32 351.637 244.609 358.699C240.898 365.762 238.959 373.62 238.959 381.598V407.822" stroke="#56303C" stroke-width="3.17441" stroke-miterlimit="10" stroke-linecap="round"/>
<path d="M231.379 388.168H210.404C196.164 388.168 182.508 382.512 172.44 372.443C162.371 362.374 156.715 348.718 156.715 334.479V329.945H188.017C199.52 329.945 210.552 334.515 218.686 342.649C226.82 350.783 231.389 361.814 231.389 373.317V388.154L231.379 388.168Z" fill="#88BC8A"/>
<path d="M179.494 348.623L217.625 374.908C224.195 379.434 229.567 385.489 233.278 392.552C236.989 399.614 238.928 407.473 238.928 415.451V441.674" stroke="#56303C" stroke-width="3.17441" stroke-miterlimit="10" stroke-linecap="round"/>
<path d="M250.239 186.086H288.594C300.849 186.086 312.603 190.954 321.268 199.62C329.934 208.286 334.803 220.039 334.803 232.294V270.649H296.447C284.192 270.649 272.439 265.781 263.773 257.115C255.107 248.45 250.239 236.696 250.239 224.441V186.086Z" fill="#9EE193"/>
<path d="M292.521 225.155L268.75 193.183" stroke="white" stroke-width="3.38144" stroke-miterlimit="10" stroke-linecap="round"/>
<path d="M180.892 270.646H142.537V232.294C142.537 226.226 143.732 220.217 146.054 214.611C148.376 209.005 151.78 203.911 156.071 199.62C160.362 195.329 165.456 191.926 171.062 189.603C176.668 187.281 182.677 186.086 188.745 186.086H227.1V224.438C227.1 236.693 222.232 248.446 213.566 257.112C204.9 265.778 193.147 270.646 180.892 270.646Z" fill="#9EE193"/>
<path d="M209.631 193.183L185.857 225.155" stroke="white" stroke-width="3.38144" stroke-miterlimit="10" stroke-linecap="round"/>
<path d="M227.1 84.5635H188.745C182.677 84.5635 176.668 83.3683 171.062 81.0461C165.456 78.7239 160.362 75.3203 156.071 71.0294C151.78 66.7386 148.376 61.6446 146.054 56.0383C143.732 50.4321 142.537 44.4233 142.537 38.3552V1.7848e-05L180.892 1.7848e-05C193.147 1.7848e-05 204.9 4.86839 213.566 13.5341C222.232 22.1999 227.1 33.9532 227.1 46.2084V84.5635V84.5635Z" fill="#9EE193"/>
<path d="M205.197 74.2536L181.427 42.2818" stroke="white" stroke-width="3.38144" stroke-miterlimit="10" stroke-linecap="round"/>
<path d="M296.447 0H334.803V38.3551C334.803 50.6104 329.934 62.3636 321.268 71.0294C312.603 79.6951 300.849 84.5635 288.594 84.5635H250.239V46.2084C250.239 40.1402 251.434 34.1314 253.756 28.5252C256.079 22.9189 259.482 17.825 263.773 13.5341C272.439 4.86837 284.192 0 296.447 0V0Z" fill="#9EE193"/>
<path d="M292.037 42.2818L268.264 74.2536" stroke="white" stroke-width="3.38144" stroke-miterlimit="10" stroke-linecap="round"/>
<path d="M156.69 107.896L183.811 135.016L156.69 162.137C148.025 170.802 136.272 175.67 124.016 175.67C111.761 175.67 100.008 170.802 91.3424 162.137L64.2219 135.016L91.3424 107.896C100.008 99.2299 111.761 94.3616 124.016 94.3616C136.272 94.3616 148.025 99.2299 156.69 107.896V107.896Z" fill="#9EE193"/>
<path d="M124.018 135.016H180.419" stroke="white" stroke-width="3.38144" stroke-miterlimit="10" stroke-linecap="round"/>
<path d="M382.812 107.896L409.932 135.016L382.812 162.137C374.146 170.802 362.393 175.67 350.138 175.67C337.883 175.67 326.13 170.802 317.464 162.137L290.344 135.016L317.464 107.896C326.13 99.2299 337.883 94.3616 350.138 94.3616C362.393 94.3616 374.146 99.2299 382.812 107.896V107.896Z" fill="#9EE193"/>
<path d="M299.387 135.016H355.788" stroke="white" stroke-width="3.38144" stroke-miterlimit="10" stroke-linecap="round"/>
<path d="M238.959 202.955C278.036 202.955 309.714 171.277 309.714 132.2C309.714 93.1236 278.036 61.4456 238.959 61.4456C199.883 61.4456 168.205 93.1236 168.205 132.2C168.205 171.277 199.883 202.955 238.959 202.955Z" fill="#A0D6FF"/>
<path d="M228.76 92.3167H221.197C219.998 92.3167 218.84 92.7548 217.942 93.5484C217.043 94.3421 216.466 95.4366 216.318 96.6263L214.523 111.118C214.335 112.64 213.693 114.07 212.679 115.221C211.666 116.372 210.33 117.191 208.844 117.57L193.269 121.556C191.845 121.921 190.576 122.735 189.652 123.878C188.727 125.021 188.197 126.432 188.138 127.901L187.948 132.711C187.892 134.147 188.351 135.556 189.241 136.684C190.132 137.812 191.396 138.585 192.806 138.863L197.178 139.722C197.996 139.883 198.763 140.237 199.416 140.755C200.068 141.273 200.587 141.94 200.929 142.7L202.388 145.937L203.389 148.162L201.705 146.416L199.376 144.001C198.514 143.107 197.362 142.549 196.126 142.427L184.394 141.282C183.587 141.204 182.808 140.941 182.119 140.515C181.429 140.088 180.846 139.509 180.416 138.822L169.112 120.817C170.986 109.343 175.656 98.5069 182.708 89.2641C189.761 80.0213 198.979 72.6562 209.551 67.8185L204.793 78.087C204.582 78.5416 204.492 79.0425 204.529 79.5421C204.567 80.0417 204.733 80.5232 205.009 80.9409C205.286 81.3585 205.665 81.6982 206.111 81.9277C206.556 82.1572 207.053 82.2687 207.553 82.2517L219.958 81.8584C221.102 81.8254 222.222 82.1913 223.125 82.8935L230.13 88.3211C230.499 88.6055 230.771 88.9986 230.905 89.4452C231.039 89.8919 231.03 90.3694 230.879 90.8106C230.728 91.2518 230.442 91.6344 230.062 91.9046C229.682 92.1748 229.226 92.3189 228.76 92.3167Z" fill="#56303C"/>
<path d="M246.074 162.337V169.99C246.074 171.225 245.603 172.413 244.756 173.312L236.53 182.028C236.001 182.591 235.324 182.994 234.577 183.192C233.83 183.391 233.043 183.376 232.304 183.15L228.874 182.114C228.628 182.04 228.369 182.024 228.115 182.066C227.862 182.108 227.622 182.208 227.414 182.357C227.205 182.507 227.034 182.703 226.913 182.929C226.792 183.156 226.725 183.407 226.717 183.664L226.414 194.226C226.39 195.021 226.547 195.81 226.873 196.536C227.198 197.262 227.684 197.904 228.294 198.414L233.501 202.731C228.762 202.373 224.072 201.536 219.502 200.233L211.86 193.649C211.02 192.926 210.483 191.914 210.355 190.813L209.041 179.427L195.991 172.902C194.85 172.327 193.892 171.447 193.222 170.36C192.551 169.272 192.196 168.02 192.196 166.743V156.236C192.195 155.257 192.431 154.292 192.884 153.423C193.336 152.555 193.991 151.808 194.794 151.247L201.715 146.416L202.405 145.937L209.472 140.968C210.168 140.481 210.995 140.216 211.844 140.208C212.693 140.2 213.525 140.449 214.23 140.923L224.543 147.869C225.113 148.252 225.6 148.744 225.977 149.316C226.355 149.889 226.614 150.531 226.741 151.205L227.514 155.301C227.62 155.859 227.917 156.362 228.355 156.724C228.792 157.086 229.341 157.285 229.909 157.285H241.016C242.356 157.285 243.642 157.817 244.59 158.764C245.539 159.711 246.072 160.996 246.074 162.337Z" fill="#56303C"/>
<path d="M270.624 68.9088L265.907 70.4029C265.364 70.5761 264.797 70.6645 264.227 70.6651H254.103C253.157 70.6648 252.233 70.9524 251.453 71.4898L240.44 79.0808C240.034 79.3602 239.575 79.554 239.092 79.6502C238.609 79.7464 238.111 79.7431 237.629 79.6404C237.147 79.5377 236.692 79.3378 236.29 79.0529C235.888 78.768 235.548 78.4041 235.292 77.9835L232.807 73.9051C232.391 73.219 232.163 72.4347 232.149 71.6321C232.134 70.8295 232.333 70.0374 232.724 69.3367L233.628 67.7184C233.789 67.4362 233.891 67.1245 233.928 66.8019C233.966 66.4794 233.938 66.1526 233.846 65.8411C233.754 65.5297 233.6 65.2399 233.394 64.9892C233.188 64.7384 232.933 64.5319 232.645 64.3819L228.546 62.2081C231.994 61.7002 235.474 61.4453 238.959 61.4455C249.952 61.4277 260.796 63.9837 270.624 68.9088Z" fill="#56303C"/>
<path d="M309.714 132.2C309.725 142.533 307.468 152.741 303.102 162.106C298.736 171.47 292.368 179.762 284.447 186.396L287.283 173.63L286.91 165.121C286.845 163.656 286.218 162.273 285.159 161.26C284.1 160.246 282.69 159.68 281.224 159.68H272.194C271.383 159.68 270.581 159.509 269.841 159.178C269.101 158.846 268.439 158.363 267.898 157.758L262.474 151.664C261.531 150.609 261.009 149.243 261.008 147.827V135.061C261.006 133.321 261.553 131.625 262.57 130.214C263.587 128.802 265.023 127.747 266.673 127.197L287.663 120.2C289.136 119.706 290.743 119.8 292.148 120.462L306.561 127.218C307.503 127.658 308.301 128.356 308.861 129.232C309.421 130.109 309.721 131.126 309.725 132.166L309.714 132.2Z" fill="#56303C"/>
<path d="M135.76 115.034H9.86353C9.86353 104.932 21.3294 96.747 35.4797 96.747C38.5519 96.7397 41.6115 97.14 44.5785 97.9374C49.2711 91.7266 56.4722 87.731 64.5462 87.731C76.6711 87.731 86.8292 96.7022 89.486 108.779C94.1476 105.808 101.666 103.465 110.147 103.465C124.294 103.458 135.76 109.983 135.76 115.034Z" fill="#EBEAE5"/>
<path d="M442.204 74.1156H339.478C339.478 60.1171 349.139 48.7755 361.074 48.7755C367.882 48.7755 373.954 52.4709 377.909 58.2435C380.401 57.5048 382.987 57.1328 385.586 57.1394C394.298 57.1394 401.803 61.1971 405.219 67.0422C409.135 64.9132 414.58 63.3709 420.597 63.3709C432.533 63.3709 442.204 69.4264 442.204 74.1156Z" fill="#EBEAE5"/>
<path d="M505.541 323.531V325.877H503.198C501.314 325.877 499.507 325.129 498.174 323.797C496.842 322.464 496.094 320.657 496.094 318.773V316.813H480.736C477.167 316.813 473.744 315.395 471.22 312.872C468.697 310.348 467.279 306.925 467.279 303.356V302.242H463.694C460.125 302.242 456.702 300.824 454.179 298.3C451.655 295.777 450.237 292.354 450.237 288.785V288.071H438.671C435.751 288.07 432.95 286.909 430.886 284.844C428.821 282.778 427.661 279.978 427.661 277.057V271.636C427.66 269.743 428.033 267.868 428.757 266.119C429.482 264.37 430.544 262.781 431.882 261.442C433.221 260.103 434.81 259.041 436.56 258.317C438.309 257.593 440.184 257.22 442.077 257.22H450.579C452.035 257.22 453.477 257.507 454.823 258.065C456.168 258.622 457.391 259.439 458.42 260.469C459.45 261.498 460.267 262.721 460.824 264.066C461.382 265.412 461.668 266.854 461.668 268.31V273.141H468.255C471.197 273.141 474.017 274.309 476.097 276.389C478.177 278.469 479.345 281.289 479.345 284.231V287.681H485.283C486.74 287.681 488.182 287.967 489.528 288.524C490.874 289.081 492.097 289.898 493.127 290.928C494.157 291.958 494.975 293.18 495.532 294.526C496.09 295.872 496.377 297.314 496.377 298.771V316.406H498.412C499.349 316.402 500.277 316.584 501.144 316.941C502.01 317.298 502.797 317.822 503.46 318.485C504.123 319.147 504.648 319.934 505.005 320.8C505.362 321.666 505.544 322.594 505.541 323.531Z" fill="#56303C"/>
<path d="M500.314 309.129H500.5C501.135 309.129 501.744 309.381 502.193 309.83C502.642 310.279 502.895 310.888 502.895 311.523V311.71C502.895 312.024 502.833 312.336 502.712 312.626C502.592 312.917 502.416 313.181 502.193 313.403C501.971 313.625 501.707 313.802 501.416 313.922C501.126 314.042 500.814 314.104 500.5 314.104H497.919V311.523C497.919 310.888 498.171 310.279 498.62 309.83C499.069 309.381 499.678 309.129 500.314 309.129Z" fill="#9EE193"/>
<path d="M491.736 323.196C491.409 323.196 491.086 323.132 490.784 323.007C490.482 322.882 490.208 322.699 489.978 322.468C489.747 322.236 489.564 321.962 489.439 321.66C489.315 321.359 489.251 321.035 489.251 320.709V320.709C489.251 320.382 489.315 320.059 489.439 319.757C489.564 319.455 489.747 319.181 489.978 318.95C490.208 318.719 490.482 318.535 490.784 318.41C491.086 318.285 491.409 318.221 491.736 318.221H494.223V320.709C494.223 321.035 494.159 321.359 494.034 321.661C493.909 321.962 493.726 322.237 493.495 322.468C493.264 322.699 492.989 322.882 492.688 323.007C492.386 323.132 492.062 323.196 491.736 323.196V323.196Z" fill="#9EE193"/>
<path d="M442.943 325.912L429.448 347.232L404.984 381.392L400.123 377.172L436.352 292.598C438.24 289.113 441.687 286.97 445.41 286.97C450.178 286.97 454.35 290.459 455.568 295.465L442.943 325.912Z" fill="#F9CECF"/>
<path d="M373.634 354.733C376.368 354.733 378.585 351.63 378.585 347.802C378.585 343.973 376.368 340.87 373.634 340.87C370.899 340.87 368.682 343.973 368.682 347.802C368.682 351.63 370.899 354.733 373.634 354.733Z" fill="#56303C"/>
<path d="M377.088 347.802C378.813 347.802 380.497 348.325 381.918 349.303C383.339 350.281 384.431 351.667 385.048 353.277L400.133 391.991" stroke="#56303C" stroke-width="2.05301" stroke-miterlimit="10" stroke-linecap="round"/>
<path d="M436.132 383.138C436.646 385.322 428.972 389.003 418.99 391.357C409.008 393.71 400.499 393.858 399.985 391.677L399.964 391.495L393.957 343.533C394.323 345.076 400.444 344.948 407.628 343.254C414.812 341.56 420.346 338.927 419.98 337.388L436.09 382.972L436.132 383.138Z" fill="#56303C"/>
<path d="M419.98 337.378C420.346 338.92 414.805 341.549 407.628 343.243C400.451 344.938 394.323 345.065 393.957 343.523C393.591 341.981 399.133 339.351 406.31 337.657C413.487 335.963 419.618 335.832 419.98 337.378Z" fill="#A0D6FF"/>
<path d="M522.275 486.606H517.583L514.65 481.776L511.717 486.606H492.508C492.437 486.609 492.368 486.586 492.312 486.541C492.257 486.497 492.22 486.434 492.208 486.364C492.195 486.294 492.209 486.222 492.246 486.161C492.283 486.1 492.34 486.055 492.408 486.033L494.403 485.323C496.266 484.663 497.816 483.333 498.753 481.592C499.689 479.852 499.944 477.825 499.468 475.906L497.377 467.467H516.848L522.275 486.606Z" fill="#56303C"/>
<path d="M497.743 476.935H495.279C494.626 476.935 493.999 476.675 493.537 476.213C493.075 475.751 492.815 475.124 492.815 474.471C492.815 474.147 492.878 473.826 493.002 473.527C493.126 473.228 493.307 472.956 493.536 472.727C493.765 472.498 494.036 472.316 494.335 472.192C494.635 472.068 494.955 472.004 495.279 472.004V472.004C495.933 472.005 496.559 472.265 497.021 472.728C497.483 473.19 497.743 473.817 497.743 474.471V476.935Z" stroke="#A0D6FF" stroke-width="0.935071" stroke-miterlimit="10"/>
<path d="M500.144 476.935H502.608C503.262 476.935 503.889 476.675 504.351 476.213C504.814 475.751 505.074 475.125 505.075 474.471V474.471C505.075 473.817 504.815 473.189 504.352 472.727C503.89 472.264 503.262 472.004 502.608 472.004C501.954 472.005 501.328 472.265 500.866 472.728C500.404 473.19 500.144 473.817 500.144 474.471V476.935Z" stroke="#A0D6FF" stroke-width="0.935071" stroke-miterlimit="10"/>
<path d="M457.89 486.606H453.201L452.021 481.775L447.335 486.606H430.083C429.949 486.605 429.819 486.556 429.718 486.468C429.616 486.38 429.549 486.259 429.529 486.126C429.509 485.993 429.536 485.857 429.607 485.743C429.677 485.629 429.786 485.543 429.914 485.502L430.497 485.319C434.855 483.939 438.53 479.878 438.992 475.903L439.968 467.463H459.439L457.89 486.606Z" fill="#56303C"/>
<path d="M434.365 472.004C434.689 472.004 435.009 472.068 435.308 472.191C435.607 472.315 435.878 472.497 436.107 472.726C436.336 472.954 436.517 473.226 436.641 473.525C436.765 473.824 436.829 474.144 436.829 474.468V476.931H434.365C433.712 476.931 433.085 476.672 432.623 476.21C432.161 475.748 431.901 475.121 431.901 474.468V474.468C431.901 474.144 431.965 473.824 432.089 473.525C432.213 473.226 432.394 472.954 432.623 472.726C432.852 472.497 433.123 472.315 433.422 472.191C433.721 472.068 434.041 472.004 434.365 472.004V472.004Z" stroke="#A0D6FF" stroke-width="0.935071" stroke-miterlimit="10"/>
<path d="M439.244 476.935H441.708C442.361 476.935 442.988 476.675 443.451 476.213C443.913 475.751 444.174 475.125 444.175 474.471C444.175 473.817 443.915 473.189 443.452 472.727C442.989 472.264 442.362 472.004 441.708 472.004C441.054 472.005 440.427 472.265 439.965 472.728C439.503 473.19 439.244 473.817 439.244 474.471V476.935Z" stroke="#A0D6FF" stroke-width="0.935071" stroke-miterlimit="10"/>
<path d="M523 467.463H497.391L474.421 398.558L464.653 467.463H439.572L449.34 347.802L463.991 326.481C463.991 326.481 467.558 344.603 490.162 343.14L523 467.463Z" fill="#9EE193"/>
<path d="M474.421 398.558L465.129 367.417" stroke="#56303C" stroke-width="1.68037" stroke-miterlimit="10" stroke-linecap="round"/>
<path d="M490.162 343.14C467.558 344.603 463.991 326.481 463.991 326.481L449.34 347.801L415.043 387.996L404.971 381.395L456.841 293.167C457.983 291.225 459.674 289.665 461.7 288.682C463.727 287.7 466 287.339 468.231 287.646C470.462 287.952 472.553 288.913 474.24 290.405C475.927 291.898 477.134 293.857 477.71 296.034L490.162 343.14Z" fill="#F9CECF"/>
<path d="M404.985 380.833L452.67 299.33" stroke="white" stroke-width="1.39398" stroke-miterlimit="10" stroke-linecap="round"/>
<path d="M490.162 343.14C467.558 344.603 464.556 327.044 464.556 327.044L467.317 322.454" stroke="white" stroke-width="1.39398" stroke-miterlimit="10" stroke-linecap="round"/>
<path d="M404.288 380.708L399.688 388.148C399.632 388.238 399.603 388.342 399.605 388.448C399.607 388.555 399.64 388.658 399.701 388.745C399.761 388.833 399.845 388.901 399.943 388.941C400.042 388.982 400.15 388.992 400.254 388.972L402.324 388.586C402.364 388.577 402.406 388.582 402.443 388.6C402.479 388.618 402.509 388.648 402.526 388.685C402.543 388.722 402.547 388.764 402.538 388.803C402.528 388.843 402.505 388.878 402.473 388.903L399.453 391.405C399.406 391.449 399.349 391.482 399.286 391.499C399.224 391.517 399.158 391.519 399.095 391.506C399.031 391.492 398.972 391.463 398.922 391.421C398.872 391.38 398.833 391.327 398.808 391.267L398.249 389.907C398.21 389.803 398.133 389.717 398.034 389.666C397.935 389.615 397.82 389.602 397.712 389.631C397.604 389.659 397.511 389.726 397.449 389.819C397.388 389.912 397.363 390.025 397.38 390.135L397.811 393.651C397.941 394.242 398.197 394.799 398.561 395.283C398.925 395.767 399.388 396.167 399.92 396.456C400.452 396.746 401.04 396.917 401.644 396.959C402.248 397.002 402.854 396.914 403.421 396.701L407.942 395.01C409.385 394.47 410.654 393.547 411.613 392.34L415.063 387.996L404.288 380.708Z" fill="#B4702F"/>
<path d="M468.524 287.685C466.254 287.313 463.925 287.639 461.843 288.617C459.761 289.596 458.024 291.182 456.862 293.167L453.204 299.378L444.316 287.153C442.66 288.061 440.938 288.378 439.168 287.843C434.251 286.346 434.041 279.907 434.041 272.754C434.041 269.497 435.693 266.868 437.96 265.132C438.16 273.728 448.612 276.961 452.587 277.878L468.524 287.685Z" fill="#B4702F"/>
<path d="M446.814 290.6L444.312 287.15C444.312 287.15 447.332 285.079 448.367 283.723L446.814 290.6Z" fill="#56303C"/>
<path d="M433.889 274.031H434.844C435.582 274.031 436.289 274.324 436.811 274.846C437.332 275.367 437.625 276.075 437.625 276.812V280.784C437.626 280.941 437.69 281.092 437.802 281.204C437.913 281.315 438.065 281.377 438.222 281.377H439.299" stroke="#56303C" stroke-width="1.12139" stroke-miterlimit="10" stroke-linecap="round"/>
<path d="M441.831 277.461C441.798 277.631 441.716 277.787 441.597 277.913C441.477 278.038 441.324 278.127 441.156 278.169C440.988 278.211 440.812 278.204 440.648 278.149C440.483 278.095 440.338 277.995 440.228 277.861C440.118 277.727 440.049 277.565 440.027 277.393C440.006 277.221 440.034 277.047 440.108 276.891C440.182 276.734 440.299 276.602 440.445 276.509C440.592 276.416 440.761 276.367 440.934 276.367C441.198 276.395 441.439 276.525 441.607 276.73C441.775 276.935 441.856 277.197 441.831 277.461Z" fill="#56303C"/>
<path d="M435.945 277.461C435.945 277.958 435.676 278.358 435.348 278.358C435.02 278.358 434.751 277.958 434.751 277.461C434.751 276.964 435.017 276.567 435.348 276.567C435.679 276.567 435.945 276.968 435.945 277.461Z" fill="#56303C"/>
<path d="M373.637 349.292V349.679C368.211 350.677 363.307 353.546 359.777 357.786C356.247 362.026 354.314 367.369 354.315 372.886V391.319C354.315 397.493 351.862 403.414 347.496 407.78C343.13 412.146 337.209 414.599 331.035 414.599H328.878C327.781 414.599 326.694 414.815 325.68 415.235C324.666 415.655 323.745 416.27 322.969 417.046C322.193 417.822 321.577 418.744 321.157 419.758C320.737 420.772 320.521 421.858 320.521 422.956V435.577C320.521 441.752 318.069 447.674 313.703 452.04C309.337 456.407 303.416 458.86 297.241 458.861H291.962C290.434 458.861 288.969 459.468 287.888 460.548C286.808 461.627 286.2 463.092 286.2 464.62V471.265C286.2 475.608 284.475 479.772 281.404 482.842C278.334 485.913 274.169 487.638 269.827 487.638H240.567V448.575C240.567 442.55 242.961 436.772 247.221 432.511C251.482 428.251 257.26 425.858 263.285 425.858H273.564C275.515 425.858 277.386 425.082 278.766 423.703C280.145 422.323 280.92 420.452 280.92 418.501V409.499C280.92 406.516 281.508 403.562 282.65 400.806C283.791 398.05 285.465 395.546 287.574 393.436C289.684 391.327 292.188 389.654 294.945 388.513C297.701 387.371 300.655 386.784 303.638 386.785H312.109C314.06 386.784 315.93 386.008 317.31 384.629C318.689 383.25 319.464 381.379 319.465 379.428V372.01C319.465 365.985 321.859 360.206 326.119 355.946C330.38 351.686 336.158 349.292 342.183 349.292H373.637Z" fill="#A0D6FF"/>
<path d="M247.313 454.776C247.313 451.793 247.901 448.839 249.042 446.083C250.184 443.326 251.857 440.822 253.967 438.713C256.077 436.604 258.581 434.931 261.337 433.789C264.094 432.648 267.048 432.061 270.031 432.061H278.384C279.603 432.061 280.81 431.821 281.936 431.355C283.062 430.888 284.086 430.205 284.947 429.343C285.809 428.481 286.493 427.458 286.959 426.332C287.426 425.206 287.666 423.999 287.666 422.78V415.703C287.666 409.678 290.059 403.899 294.32 399.639C298.58 395.379 304.359 392.985 310.384 392.985H317.257C319.636 392.985 321.918 392.04 323.601 390.358C325.283 388.675 326.228 386.393 326.228 384.014V378.197C326.228 372.171 328.622 366.393 332.882 362.133C337.142 357.872 342.921 355.479 348.946 355.479" stroke="white" stroke-width="1.39398" stroke-miterlimit="10" stroke-linecap="round"/>
<path d="M254.645 463.24C254.645 460.256 255.232 457.302 256.373 454.546C257.515 451.79 259.188 449.286 261.297 447.176C263.406 445.066 265.91 443.393 268.666 442.251C271.422 441.11 274.376 440.522 277.36 440.522H285.717C286.935 440.522 288.142 440.282 289.268 439.815C290.394 439.349 291.417 438.665 292.278 437.803C293.14 436.941 293.823 435.918 294.29 434.792C294.756 433.666 294.995 432.459 294.995 431.24V424.167C294.995 418.142 297.388 412.363 301.649 408.103C305.909 403.843 311.687 401.449 317.713 401.449H324.589C326.969 401.449 329.25 400.504 330.933 398.821C332.615 397.139 333.56 394.857 333.56 392.478" stroke="white" stroke-width="1.39398" stroke-miterlimit="10" stroke-linecap="round"/>
<path d="M270.338 417.583C272.535 417.583 274.316 415.802 274.316 413.605C274.316 411.408 272.535 409.627 270.338 409.627C268.141 409.627 266.359 411.408 266.359 413.605C266.359 415.802 268.141 417.583 270.338 417.583Z" fill="#A0D6FF"/>
<path d="M232.397 472.996C233.004 469.26 230.467 465.74 226.731 465.134C222.996 464.527 219.476 467.064 218.869 470.8C218.263 474.536 220.8 478.056 224.535 478.662C228.271 479.268 231.791 476.732 232.397 472.996Z" fill="#A0D6FF"/>
<path d="M363.641 365.523C365.29 365.523 366.626 364.187 366.626 362.538C366.626 360.89 365.29 359.554 363.641 359.554C361.993 359.554 360.657 360.89 360.657 362.538C360.657 364.187 361.993 365.523 363.641 365.523Z" fill="#A0D6FF"/>
<path d="M146.943 485.795H112.939L113.953 475.613L126.806 471.652L127.386 472.929C127.965 474.204 128.9 475.286 130.078 476.044C131.256 476.803 132.627 477.207 134.028 477.207H137.823C139.7 477.207 141.528 477.808 143.038 478.922C144.549 480.036 145.663 481.604 146.218 483.397L146.943 485.795Z" fill="#56303C"/>
<path d="M126.985 486.378H146.943" stroke="#9EE193" stroke-width="2.23934" stroke-miterlimit="10" stroke-linecap="round"/>
<path d="M112.939 486.378H122.417" stroke="#9EE193" stroke-width="2.23934" stroke-miterlimit="10" stroke-linecap="round"/>
<path d="M128.769 477.863L130.212 474.685" stroke="#9EE193" stroke-width="1.49404" stroke-miterlimit="10" stroke-linecap="round"/>
<path d="M132.868 478.501L133.676 476.489" stroke="#9EE193" stroke-width="1.49404" stroke-miterlimit="10" stroke-linecap="round"/>
<path d="M37.9397 475.023L36.2766 485.792H70.2842L69.5423 483.397C68.9879 481.604 67.8737 480.035 66.363 478.921C64.8522 477.807 63.0244 477.207 61.1474 477.207H54.3086C53.6799 477.207 53.0694 476.996 52.575 476.607C52.0807 476.219 51.7313 475.675 51.5828 475.064L37.9397 475.023Z" fill="#56303C"/>
<path d="M50.3269 486.378H70.2843" stroke="#9EE193" stroke-width="2.23934" stroke-miterlimit="10" stroke-linecap="round"/>
<path d="M36.2766 486.378H45.755" stroke="#9EE193" stroke-width="2.23934" stroke-miterlimit="10" stroke-linecap="round"/>
<path d="M52.7214 479.084L54.1672 475.851" stroke="#9EE193" stroke-width="1.49404" stroke-miterlimit="10" stroke-linecap="round"/>
<path d="M56.21 479.084L57.1243 476.379" stroke="#9EE193" stroke-width="1.49404" stroke-miterlimit="10" stroke-linecap="round"/>
<path d="M76.4468 322.555L129.239 467.018C129.4 467.462 129.471 467.933 129.447 468.405C129.423 468.877 129.304 469.339 129.098 469.764C128.892 470.189 128.602 470.568 128.246 470.878C127.89 471.189 127.476 471.425 127.027 471.572L114.198 475.785C113.027 476.17 111.756 476.117 110.622 475.634C109.488 475.152 108.567 474.273 108.032 473.163L58.5252 370.454L55.0748 470.313C55.0282 471.676 54.4537 472.968 53.4726 473.916C52.4914 474.863 51.1804 475.393 49.8163 475.392H37.198C35.8266 475.392 34.5092 474.858 33.5264 473.901C32.5435 472.945 31.9729 471.642 31.9361 470.272L28.7789 351.1C28.282 340.362 30.7733 330.304 36.0041 320.981L43.709 310.726L76.4468 322.555Z" fill="#B4702F"/>
<path d="M59.4878 371.572L61.2579 343.996L65.5261 342.64" stroke="#56303C" stroke-width="1.68037" stroke-miterlimit="10" stroke-linecap="round"/>
<path d="M80.1145 237.404L102.595 245.316C103.824 245.749 104.831 246.652 105.394 247.827C105.958 249.002 106.031 250.353 105.598 251.582L104.054 255.969L72.3043 244.795L73.8485 240.407C74.2811 239.178 75.1843 238.171 76.3594 237.608C77.5345 237.044 78.8853 236.971 80.1145 237.404V237.404Z" fill="#9EE193"/>
<path d="M99.3405 251.624L74.7699 321.927L56.3169 315.526L80.9117 244.971L99.3405 251.624Z" fill="#A0D6FF"/>
<path d="M81.4396 244.302L56.7068 314.591C55.9065 316.863 54.2362 318.725 52.0633 319.766C49.8904 320.808 47.3929 320.943 45.1202 320.143L41.6697 318.928C39.3862 318.125 37.4955 316.48 36.3841 314.33C35.2727 312.18 35.0244 309.686 35.6901 307.359L52.9423 247C53.5428 244.9 54.9063 243.101 56.7653 241.955C58.6243 240.809 60.8445 240.4 62.99 240.807L81.4396 244.302Z" fill="#9EE193"/>
<path d="M75.1492 320.37L99.3265 251.624L108.784 257.303C110.591 258.387 111.946 260.087 112.6 262.09C113.254 264.093 113.164 266.265 112.345 268.206L88.0712 326.257C87.7395 327.049 87.2425 327.761 86.6134 328.346C85.9843 328.931 85.2375 329.374 84.4232 329.647C83.6088 329.92 82.7455 330.015 81.8912 329.927C81.0369 329.84 80.2111 329.57 79.4692 329.138L78.0649 328.32C76.7284 327.543 75.7055 326.323 75.1731 324.871C74.6407 323.419 74.6323 321.827 75.1492 320.37V320.37Z" fill="#9EE193"/>
<path d="M78.0374 313.4L91.4182 318.11" stroke="white" stroke-width="2.16688" stroke-miterlimit="10" stroke-linecap="round"/>
<path d="M38.4092 299.257L59.2499 306.593" stroke="white" stroke-width="2.16688" stroke-miterlimit="10" stroke-linecap="round"/>
<path d="M85.4146 293.005L98.7954 297.715" stroke="white" stroke-width="2.16688" stroke-miterlimit="10" stroke-linecap="round"/>
<path d="M44.6543 278.661L66.0643 286.197" stroke="white" stroke-width="2.16688" stroke-miterlimit="10" stroke-linecap="round"/>
<path d="M92.7915 272.047L107.87 277.354" stroke="white" stroke-width="2.16688" stroke-miterlimit="10" stroke-linecap="round"/>
<path d="M50.8997 257.303L73.4379 265.236" stroke="white" stroke-width="2.16688" stroke-miterlimit="10" stroke-linecap="round"/>
<path d="M178.618 464.53H165.979C165.102 464.53 164.392 465.241 164.392 466.117V470.272C164.392 471.148 165.102 471.859 165.979 471.859H178.618C179.495 471.859 180.205 471.148 180.205 470.272V466.117C180.205 465.241 179.495 464.53 178.618 464.53Z" fill="#F9CECF"/>
<path d="M151.325 487.638L156.649 470.192L171.486 487.655L151.325 487.638Z" fill="#9EE193"/>
<path d="M194.155 473.574H170.361C166.628 473.574 163.602 476.599 163.602 480.331C163.602 484.064 166.628 487.089 170.361 487.089H194.155C197.889 487.089 200.915 484.064 200.915 480.331C200.915 476.599 197.889 473.574 194.155 473.574Z" stroke="#A0D6FF" stroke-width="0.935071" stroke-miterlimit="10"/>
<path d="M170.358 487.092C174.091 487.092 177.117 484.066 177.117 480.333C177.117 476.6 174.091 473.574 170.358 473.574C166.624 473.574 163.598 476.6 163.598 480.333C163.598 484.066 166.624 487.092 170.358 487.092Z" stroke="#A0D6FF" stroke-width="0.935071" stroke-miterlimit="10"/>
<path d="M169.139 482.041C170.082 481.65 170.531 480.568 170.14 479.624C169.749 478.681 168.667 478.233 167.723 478.623C166.78 479.014 166.332 480.096 166.722 481.04C167.113 481.983 168.195 482.432 169.139 482.041Z" stroke="#A0D6FF" stroke-width="0.935071" stroke-miterlimit="10"/>
<path d="M161.297 471.452C162.175 471.452 162.887 470.739 162.887 469.861C162.887 468.982 162.175 468.27 161.297 468.27C160.418 468.27 159.706 468.982 159.706 469.861C159.706 470.739 160.418 471.452 161.297 471.452Z" fill="#56303C"/>
<path d="M152.412 478.557C152.74 477.168 151.88 475.776 150.49 475.448C149.101 475.12 147.709 475.981 147.381 477.37C147.054 478.759 147.914 480.151 149.303 480.479C150.692 480.807 152.084 479.946 152.412 478.557Z" fill="#A0D6FF"/>
<path d="M35.5142 297.539L190.17 473.75C192.214 476.159 193.335 479.216 193.334 482.376V486.047" stroke="#56303C" stroke-width="1.68037" stroke-miterlimit="10" stroke-linecap="round"/>
<path d="M179.867 486.04L179.815 480.23C179.801 478.6 179.488 476.988 178.891 475.471L167.866 447.478L200.863 473.539C202.442 474.786 203.718 476.374 204.595 478.184C205.472 479.994 205.928 481.979 205.928 483.991V486.04" stroke="#56303C" stroke-width="1.68037" stroke-miterlimit="10" stroke-linecap="round"/>
<path d="M26.2429 293.592L45.4791 273.141L55.1403 243.243L52.4835 242.777C49.7192 242.295 46.8756 242.578 44.2606 243.595C41.6455 244.613 39.3584 246.326 37.6466 248.549L4.69829 280.711C1.78582 283.554 0.101125 287.423 0.0044059 291.492C-0.0923136 295.56 1.40662 299.505 4.18072 302.483L32.3605 328.362L43.4951 314.667L26.2429 293.592Z" fill="#88BC8A"/>
<path d="M44.1541 331.588L35.7385 324.214L43.4951 314.677L48.7019 313.79C50.3353 313.512 52.0149 313.777 53.4842 314.543L59.4879 317.683L59.167 318.297C58.8977 318.811 58.4641 319.221 57.9351 319.46C57.4061 319.7 56.8122 319.755 56.248 319.618L54.6228 319.221C54.1205 319.099 53.5919 319.149 53.121 319.362C52.6502 319.575 52.2642 319.94 52.0246 320.398V320.398C51.8195 320.791 51.7788 321.25 51.9114 321.673C52.0441 322.096 52.3392 322.449 52.732 322.655L60.9889 327.254C61.2558 327.402 61.4706 327.629 61.604 327.904C61.7375 328.178 61.7833 328.487 61.735 328.789C61.6868 329.09 61.5469 329.37 61.3344 329.589C61.1219 329.808 60.8471 329.957 60.5472 330.014L47.5908 332.519C46.9848 332.636 46.3603 332.613 45.7647 332.451C45.1692 332.29 44.6183 331.994 44.1541 331.588V331.588Z" fill="#F9CECF"/>
<path d="M114.226 312.048L118.394 273.027C118.477 268.379 116.6 265.505 114.009 264.139L112.973 263.583L93.054 314.056L99.3614 358.891L115.634 356.29L114.226 312.048Z" fill="#88BC8A"/>
<path d="M115.278 367.942L115.644 355.548L107.984 355.486C104.999 355.46 102.107 356.519 99.8443 358.467L99.3509 358.891C98.0955 359.974 97.229 361.438 96.8838 363.059L95.4761 369.684L96.1662 369.829C96.7342 369.95 97.3265 369.878 97.8482 369.622C98.3699 369.367 98.7909 368.944 99.0438 368.421L99.7753 366.917C100.001 366.452 100.375 366.076 100.839 365.849C101.303 365.622 101.83 365.557 102.336 365.664V365.664C102.55 365.71 102.754 365.797 102.935 365.922C103.116 366.046 103.271 366.205 103.391 366.389C103.51 366.574 103.592 366.78 103.632 366.996C103.672 367.212 103.669 367.434 103.623 367.648L103.184 377.037C103.169 377.366 103.244 377.692 103.403 377.98C103.561 378.268 103.797 378.507 104.083 378.669C104.368 378.832 104.694 378.912 105.022 378.901C105.351 378.89 105.67 378.788 105.945 378.607L111.331 375.05C112.51 374.268 113.484 373.214 114.171 371.977C114.858 370.74 115.238 369.356 115.278 367.942V367.942Z" fill="#F9CECF"/>
<path d="M101.704 246.251L98.5538 253.88C97.2668 256.903 93.6024 258.366 90.4108 257.093L83.9377 254.543C80.784 253.301 79.2969 249.892 80.6081 246.921L84.2103 238.788L101.704 246.251Z" fill="#F9CECF"/>
<path d="M111.831 245.172C111.837 245.404 111.791 245.634 111.697 245.846C111.602 246.058 111.461 246.246 111.285 246.397C111.108 246.547 110.9 246.656 110.676 246.716C110.452 246.776 110.217 246.784 109.989 246.742L107.701 246.307C107.242 247.263 106.581 248.109 105.762 248.785C104.944 249.461 103.989 249.951 102.963 250.221C101.937 250.492 100.864 250.536 99.8195 250.351C98.7746 250.166 97.7824 249.756 96.9115 249.15L85.3663 241.114C84.5876 240.572 83.9939 239.805 83.6656 238.915C83.3373 238.025 83.2902 237.056 83.5307 236.138L85.4077 231.101C87.2744 223.938 94.9206 220.297 101.356 223.951L107.097 227.229C108.662 228.119 109.925 229.456 110.724 231.069C111.523 232.681 111.822 234.496 111.583 236.28L111.831 245.172Z" fill="#F9CECF"/>
<path d="M87.7437 235.21C87.7437 235.21 90.0658 236.476 88.8823 238.964" stroke="#56303C" stroke-width="1.12139" stroke-miterlimit="10" stroke-linecap="round"/>
<path d="M86.8467 237.387L88.9445 236.583" stroke="#56303C" stroke-width="1.12139" stroke-miterlimit="10" stroke-linecap="round"/>
<path d="M107.263 242.297C107.135 242.398 106.98 242.459 106.818 242.473C106.656 242.486 106.493 242.451 106.351 242.372C106.208 242.293 106.093 242.173 106.018 242.029C105.943 241.884 105.913 241.72 105.931 241.558C105.95 241.397 106.015 241.244 106.12 241.119C106.225 240.995 106.365 240.904 106.521 240.859C106.678 240.813 106.844 240.815 106.999 240.864C107.155 240.914 107.292 241.007 107.394 241.134C107.462 241.219 107.513 241.317 107.543 241.421C107.573 241.526 107.583 241.635 107.57 241.743C107.558 241.851 107.525 241.956 107.472 242.051C107.419 242.146 107.348 242.23 107.263 242.297Z" fill="#56303C"/>
<path d="M106.476 237.37H110.237V237.757C110.237 238.22 110.053 238.664 109.726 238.991C109.398 239.319 108.954 239.503 108.491 239.503H104.454V239.392C104.454 238.856 104.667 238.342 105.046 237.962C105.426 237.583 105.94 237.37 106.476 237.37Z" fill="#56303C"/>
<path d="M117.3 230.555C116.13 233.519 112.58 234.893 109.364 233.626C107.924 233.066 106.731 232.012 105.997 230.652C105.268 231.025 104.467 231.237 103.649 231.273C102.83 231.309 102.014 231.168 101.256 230.859C100.656 230.625 100.1 230.292 99.6097 229.876L99.6339 230.09C99.7995 231.574 99.5181 233.074 98.8259 234.397C98.1338 235.721 97.0623 236.808 95.7487 237.518L94.3685 238.26C93.5956 240.386 92.8124 242.246 94.7964 244.126L98.1157 246.597L99.0991 246.251C101.888 245.255 104.936 245.255 107.725 246.251L105.538 253.204C105.383 253.684 105.113 254.118 104.751 254.468C104.389 254.818 103.947 255.074 103.463 255.213C102.979 255.352 102.468 255.37 101.975 255.265C101.483 255.161 101.023 254.936 100.638 254.612L91.1527 246.628C90.6109 246.17 90.2124 245.566 90.0049 244.888C89.7975 244.21 89.7899 243.487 89.983 242.805L91.6289 238.664C92.0178 237.676 92.0147 236.577 91.6203 235.591C91.2259 234.605 90.4699 233.808 89.5068 233.361L89.4206 233.323C88.4066 232.849 87.2464 232.796 86.1933 233.175C85.1402 233.554 84.2798 234.334 83.7998 235.345L84.8349 227.733C85.0173 226.361 85.7343 225.117 86.8297 224.272C87.9252 223.427 89.3104 223.048 90.6834 223.22C90.7334 223.027 90.7944 222.837 90.8663 222.65C91.9014 220.028 95.0483 218.814 97.8811 219.935C98.7875 220.29 99.5906 220.867 100.217 221.612C100.954 221.217 101.769 220.99 102.604 220.947C103.439 220.903 104.273 221.044 105.048 221.36C106.127 221.783 107.055 222.52 107.711 223.475C108.578 222.901 109.572 222.548 110.606 222.446C111.641 222.344 112.684 222.498 113.646 222.892C116.831 224.158 118.473 227.591 117.3 230.555Z" fill="#56303C"/>
</svg>
