<?xml version="1.0" encoding="UTF-8"?>
<svg width="537px" height="544px" viewBox="0 0 537 544" version="1.1" xmlns="http://www.w3.org/2000/svg" xmlns:xlink="http://www.w3.org/1999/xlink">
    <title>Tablet</title>
    <g id="Tablet" stroke="none" stroke-width="1" fill="none" fill-rule="evenodd" stroke-linecap="round">
        <g id="blatt-im-kreis" transform="translate(10.000000, 8.665312)" stroke="#094D13" stroke-width="15">
            <g id="blatt" transform="translate(163.000000, 113.334688)">
                <line x1="95.7284689" y1="90.5390185" x2="95.5" y2="331" id="Line" fill="#094D13"></line>
                <line x1="76.1882144" y1="105.169245" x2="74.1189545" y2="162.769414" id="Line-Copy" fill="#094D13" transform="translate(75.153584, 133.969329) rotate(-46.000001) translate(-75.153584, -133.969329) "></line>
                <line x1="76.1882144" y1="186.146209" x2="74.1189545" y2="243.746378" id="Line-Copy-2" fill="#094D13" transform="translate(75.153584, 214.946293) rotate(-46.000001) translate(-75.153584, -214.946293) "></line>
                <line x1="117.898754" y1="185.081705" x2="115.701359" y2="242.679909" id="Line-Copy-3" fill="#094D13" transform="translate(116.800057, 213.880807) rotate(42.999999) translate(-116.800057, -213.880807) "></line>
                <line x1="117.898754" y1="104.104741" x2="115.701359" y2="161.702945" id="Line-Copy-4" fill="#094D13" transform="translate(116.800057, 132.903843) rotate(42.999999) translate(-116.800057, -132.903843) "></line>
                <path d="M95.0430622,0 C28.7398092,61.9907998 -2.87294729,121.366612 0.204792771,178.127436 C3.28253284,234.88826 33.2327038,272.472044 90.0553057,290.878788" id="Path"></path>
                <path d="M191,0 C124.696747,61.9907998 93.0839905,121.366612 96.1617306,178.127436 C99.2394706,234.88826 129.189642,272.472044 186.012243,290.878788" id="Path-Copy" transform="translate(143.478469, 145.439394) scale(-1, 1) translate(-143.478469, -145.439394) "></path>
            </g>
            <path d="M52.3055111,110.906799 C19.4763745,154.251402 0,208.268569 0,266.834688 C0,409.600295 115.734392,525.334688 258.5,525.334688 C401.265608,525.334688 517,409.600295 517,266.834688 C517,124.06908 401.265608,8.33468762 258.5,8.33468762 C204.750393,8.33468762 154.832288,24.7392941 113.479313,52.8148778" id="Path"></path>
            <line x1="127.642235" y1="-2.24669712" x2="125.509704" y2="55.3316288" id="Line-Copy-5" fill="#094D13" transform="translate(126.575970, 26.542466) rotate(25.000000) translate(-126.575970, -26.542466) "></line>
            <line x1="143.979969" y1="24.128673" x2="141.847439" y2="81.7069989" id="Line-Copy-6" fill="#094D13" transform="translate(142.913704, 52.917836) rotate(87.000000) translate(-142.913704, -52.917836) "></line>
        </g>
    </g>
</svg>